# xmcd
#
# Track frame offsets:
#	150
#	12499
#	26689
#	40030
#	52480
#	66201
#	75431
#	91258
#	105299
#	113398
#
# Disc length: 1727 seconds
#
# Revision: 1
# Processed by: cddbd v1.5.2PL0 Copyright (c) Steve Scherf et al.
# Submitted via: audiograbber 1.83.01
#
DISCID=7106bd0a
DTITLE=The Moore Brothers - Credit To You The Moore Brothers
DYEAR=1900
DGENRE=
TTITLE0=No Trepassng
TTITLE1=Credit To You
TTITLE2=Man Monoply
TTITLE3=Lately I´ve Been Blue
TTITLE4=Hank Is Dead
TTITLE5=Home Improvements
TTITLE6=How Do You Like Me Me Now
TTITLE7=Don´t Be Stupid You Know I Love You
TTITLE8=Amazed
TTITLE9=Whole Lotta Shakin Goin On
EXTD=
EXTT0=
EXTT1=
EXTT2=
EXTT3=
EXTT4=
EXTT5=
EXTT6=
EXTT7=
EXTT8=
EXTT9=
PLAYORDER=
